<svg xmlns="http://www.w3.org/2000/svg" viewBox="0 0 32 32">
  <!-- Black background -->
  <rect width="32" height="32" fill="#000000"/>

  <!-- Verde oak tree -->
  <g fill="#00B140">
    <!-- Oak crown - multiple rounded lobes -->
    <path d="M16 4 C14 4 12 5 11 7 C10 6 8 6 7 8 C6 8 5 9 5 11 C4 12 4 14 5 15 C4 16 4 18 6 19 C6 20 7 21 8 21 C8 22 9 23 11 23 C12 24 14 24 16 23 C18 24 20 24 21 23 C23 23 24 22 24 21 C25 21 26 20 26 19 C28 18 28 16 27 15 C28 14 28 12 27 11 C27 9 26 8 25 8 C24 6 22 6 21 7 C20 5 18 4 16 4 Z"/>

    <!-- Oak trunk - wider and more substantial -->
    <path d="M14 22 C14 22 13 23 13 24 L13 30 L19 30 L19 24 C19 23 18 22 18 22 L14 22 Z"/>
  </g>
</svg>
